<svg xmlns="http://www.w3.org/2000/svg" viewBox="0 0 500 500">
  <defs>
    <linearGradient id="circleGradient" x1="0%" y1="0%" x2="100%" y2="0%">
      <stop offset="0%" style="stop-color:#4CAF50"/>
      <stop offset="100%" style="stop-color:#03A9F4"/>
    </linearGradient>
    <linearGradient id="treeGradient" x1="0%" y1="100%" x2="0%" y2="0%">
      <stop offset="0%" style="stop-color:#8BC34A"/>
      <stop offset="100%" style="stop-color:#CDDC39"/>
    </linearGradient>
  </defs>
  <circle cx="250" cy="250" r="240" fill="none" stroke="url(#circleGradient)" stroke-width="20"/>
  <path d="M250 100c-20 0-80 80-80 160 0 40 35.82 80 80 80s80-40 80-80c0-80-60-160-80-160zm0 20c10 0 60 70 60 140 0 30-26.86 60-60 60s-60-30-60-60c0-70 50-140 60-140z" fill="url(#treeGradient)"/>
  <path d="M250 140l-40 80h80z M250 180l-40 80h80z M250 220l-40 80h80z" fill="url(#treeGradient)"/>
</svg>